<?xml version="1.0" encoding="UTF-8"?>
<svg id="Layer_4" data-name="Layer 4" xmlns="http://www.w3.org/2000/svg" viewBox="0 0 30.77 44.25">
  <defs>
    <style>
      .cls-1 {
        fill: #9e267f;
        stroke-width: 0px;
      }
    </style>
  </defs>
  <path class="cls-1" d="m29.82,17.42c-.19,0-.38-.06-.55-.18-.67-.49-1.14-1.96-1.42-3.15-.04-.12-.08-.27-.14-.51-.24-.95-.88-3.49-2.31-5.92-.26-.45-.11-1.03.34-1.29.45-.26,1.03-.11,1.29.33,1.57,2.67,2.25,5.39,2.51,6.42.03.12.06.26.08.32.02.05.04.1.05.16.21.9.56,1.91.74,2.15.39.31.47.88.17,1.29-.19.26-.47.39-.77.39Z"/>
  <path class="cls-1" d="m24.19,5.41c-.25,0-.5-.1-.68-.29-1.84-1.94-4.11-3.02-6.76-3.21-.84-.04-1.68.02-2.5.18-.51.1-1.01-.23-1.11-.74-.1-.51.23-1.01.74-1.11.98-.19,1.98-.27,2.98-.22,0,0,.01,0,.02,0,3.13.23,5.82,1.5,8,3.8.36.38.34.98-.03,1.33-.18.17-.42.26-.65.26Z"/>
  <path class="cls-1" d="m.99,12.46c-.08,0-.14-.01-.21-.03-.36-.08-.64-.36-.72-.72-.08-.36.06-.74.36-.96.07-.05.15-.1.23-.13.23-.14.91-.61,1.49-1.37l.22-.29c.34-.45.76-1.02,1.26-1.63,1.63-2.02,3.24-3.57,4.93-4.74.43-.3,1.02-.19,1.31.23.3.43.19,1.02-.23,1.31-1.54,1.07-3.02,2.5-4.54,4.38-.48.59-.89,1.14-1.22,1.58l-.22.3c-.51.68-1.07,1.16-1.44,1.45-.65.5-.96.62-1.2.62Z"/>
  <path class="cls-1" d="m.94,22.17c-.42,0-.8-.28-.91-.7-.14-.5.16-1.02.66-1.16,1.74-.47,3.44-1.26,4.55-1.84.46-.24,1.03-.06,1.27.4.24.46.06,1.03-.4,1.27-1.19.62-3.02,1.47-4.92,1.99-.08.02-.17.03-.25.03Z"/>
  <path class="cls-1" d="m7.88,18.93c-.3,0-.6-.14-.78-.41-.29-.43-.18-1.02.25-1.31,3.37-2.3,6.31-5.4,6.33-5.43,2.51-2.87,5.24-4.13,7.5-3.44,2.3.7,3.19,2.2,3.54,3.34.15.5-.13,1.03-.62,1.18-.5.15-1.03-.13-1.18-.62-.31-1.02-1.09-1.72-2.29-2.09-1.76-.54-4.01,1.13-5.53,2.88-.32.36-3.36,3.47-6.68,5.74-.16.11-.35.16-.53.16Z"/>
  <path class="cls-1" d="m2.71,32.02c-.37,0-.72-.21-.87-.57-.2-.48.02-1.03.5-1.24,3.99-1.71,9.65-5.24,11.89-6.67,4.48-2.87,7.47-5.77,8.43-8.17.19-.48.74-.72,1.23-.53.48.19.72.74.53,1.23-1.42,3.55-5.77,6.88-9.17,9.06-2.29,1.46-8.04,5.06-12.17,6.82-.12.05-.25.08-.37.08Z"/>
  <path class="cls-1" d="m11.52,9.34c.89-.85,1.75-1.54,2.82-2.17,1.06-.63,2.28-1.11,3.46-1.23.51-.05.94-.39.94-.94,0-.47-.43-1-.94-.94-2.95.31-5.5,1.94-7.61,3.96-.88.84.46,2.18,1.34,1.34h0Z"/>
  <path class="cls-1" d="m1.55,17.14c1.29-.39,2.41-1.14,3.6-1.76,1.25-.65,2.35-1.66,3.33-2.66.86-.87-.48-2.2-1.34-1.34-.89.89-1.84,1.76-2.95,2.36-1.03.56-2.06,1.24-3.14,1.57-.49.15-.8.66-.66,1.16.13.49.67.81,1.16.66h0Z"/>
  <path class="cls-1" d="m15.29,19.26c-.26,0-.52-.11-.71-.32-.34-.39-.3-.99.09-1.33,1.63-1.43,3.02-2.95,4.14-4.52.3-.42.89-.52,1.32-.22.42.3.52.89.22,1.32-1.21,1.69-2.7,3.32-4.43,4.84-.18.16-.4.23-.62.23Z"/>
  <path class="cls-1" d="m1.51,27.16c-.38,0-.74-.23-.88-.61-.18-.49.06-1.03.55-1.22,0,0,.04-.01.08-.03.93-.32,3.41-1.24,6.44-2.89,1.02-.56,2.01-1.15,2.95-1.76.44-.29,1.02-.16,1.31.27.29.44.16,1.02-.27,1.31-.98.64-2.01,1.26-3.08,1.84-3.15,1.72-5.76,2.69-6.73,3.02h-.03c-.11.05-.22.07-.32.07Z"/>
  <path class="cls-1" d="m27.26,34.55c-.1,0-.2-.02-.3-.05-1.58-.53-3.29-1.75-4.96-2.93-1.58-1.12-3.54-2.52-4.34-2.38-.78.14-3.16,1.67-3.94,2.18-.44.28-1.02.16-1.31-.28-.28-.44-.16-1.02.28-1.31,2.51-1.62,3.81-2.31,4.65-2.45,1.58-.27,3.51,1.11,5.76,2.71,1.55,1.1,3.15,2.24,4.46,2.68.49.16.76.7.6,1.19-.13.4-.5.65-.89.65Z"/>
  <path class="cls-1" d="m4.87,36.49c-.42,0-.8-.28-.91-.7-.14-.5.16-1.02.67-1.16,1.16-.31,3.89-2.11,6.08-3.55.44-.29,1.02-.17,1.31.27.29.44.17,1.02-.27,1.31-3.03,2-5.27,3.44-6.63,3.8-.08.02-.17.03-.25.03Z"/>
  <path class="cls-1" d="m24.87,39.17c-.11,0-.22-.02-.32-.06-.77-.28-1.76-.86-2.71-1.44-.45-.27-.59-.85-.31-1.3.27-.45.85-.59,1.3-.31.83.5,1.76,1.05,2.37,1.27.49.18.74.72.57,1.21-.14.38-.5.62-.89.62Z"/>
  <path class="cls-1" d="m8.28,40.73c-.3,0-.59-.14-.77-.4-.3-.43-.2-1.02.23-1.32.3-.21.74-.53,1.24-.9,4.12-3.01,6.57-4.67,7.74-4.87.81-.14,1.84.25,3.82,1.42.45.27.6.84.33,1.29-.27.45-.84.6-1.29.33-1.85-1.1-2.4-1.19-2.55-1.18-.94.16-5.3,3.34-6.93,4.54-.51.37-.95.69-1.26.92-.17.12-.36.17-.54.17Z"/>
  <path class="cls-1" d="m12.05,44.25c-.24,0-.47-.09-.66-.27-.37-.36-.38-.96-.02-1.34.51-.53,3.14-3.17,4.79-3.46,1.47-.25,2.81.7,4.35,1.81.47.34.96.68,1.49,1.03.44.28.56.87.28,1.31-.28.44-.87.56-1.31.28-.56-.37-1.09-.74-1.55-1.08-1.2-.86-2.25-1.6-2.94-1.48-.7.12-2.49,1.61-3.76,2.91-.19.19-.43.29-.68.29Z"/>
  <path class="cls-1" d="m25,19.48c.4,2.45,2.21,3.77,4.36,4.68.47.2,1.01.15,1.29-.34.23-.4.14-1.09-.34-1.29-.79-.33-1.61-.68-2.27-1.23-.73-.61-1.07-1.4-1.22-2.32-.2-1.2-2.02-.69-1.82.5h0Z"/>
  <path class="cls-1" d="m21.43,23.54c1.13,2.77,3.71,4.87,6.55,5.75,1.17.36,1.66-1.46.5-1.82-.71-.22-1.25-.5-2-.94-1.37-.81-2.63-1.99-3.24-3.49-.19-.48-.62-.81-1.16-.66-.45.12-.85.68-.66,1.16h0Z"/>
</svg>