<svg xmlns="http://www.w3.org/2000/svg" width="14.173" height="16.889" viewBox="0 0 14.173 16.889"><g transform="translate(-99.721 -196.071)"><path d="M113.805,206.018l-2.073-2.073a.307.307,0,0,0-.215-.089.3.3,0,0,0-.214.089l-.361.362a.3.3,0,0,0,0,.428l1.5,1.5-1.5,1.5a.3.3,0,0,0,0,.428l.361.362a.3.3,0,0,0,.214.089.307.307,0,0,0,.215-.089l2.073-2.074a.3.3,0,0,0,0-.428Z" fill="#57ac33"/><path d="M108.6,202.04l-1.29.49-.961-1.279v-.2a1.407,1.407,0,0,0-1.406-1.406h-.6a1.4,1.4,0,0,0-1.132.579l-1.767.9a.7.7,0,0,0-.314.32l-1.025,2.133a.7.7,0,1,0,1.259.6l.922-1.919.651-.33v4.2l.168,2.086-2.9,1.567a.922.922,0,1,0,.877,1.622l3.444-1.862a.922.922,0,0,0,.478-.913l-.156-1.412,1,1.8v3.02a.922.922,0,1,0,1.844,0v-3.259a.923.923,0,0,0-.117-.447l-1.226-2.2v-2.556l.16.214a.7.7,0,0,0,.558.279.686.686,0,0,0,.248-.046l1.781-.677a.7.7,0,0,0-.5-1.305Z" fill="#57ac33"/><path d="M104.642,199.336a1.633,1.633,0,1,0-1.634-1.633A1.633,1.633,0,0,0,104.642,199.336Z" fill="#57ac33"/></g></svg>