<?xml version="1.0" encoding="utf-8"?>
<!-- Generator: Adobe Illustrator 27.6.1, SVG Export Plug-In . SVG Version: 6.00 Build 0)  -->
<svg version="1.1" id="Layer_1" xmlns="http://www.w3.org/2000/svg" xmlns:xlink="http://www.w3.org/1999/xlink" x="0px" y="0px"
	 viewBox="0 0 100 100" style="enable-background:new 0 0 100 100;" xml:space="preserve">
<style type="text/css">
	.st0{fill:#9E267F;}
	.st1{fill:#1EAB4A;}
	.st2{fill:#4B4B4B;}
	.st3{fill:#ED2024;}
	.st4{fill:url(#SVGID_1_);}
	.st5{fill:url(#SVGID_00000101800755837805202410000003674177837993795972_);}
	.st6{fill:url(#SVGID_00000051347151168071637650000008492786544944180411_);}
	.st7{fill:url(#SVGID_00000067228427193549615470000011786401563449950085_);}
	.st8{opacity:0.5;fill:url(#SVGID_00000183218634818045117420000003215628807075800966_);enable-background:new    ;}
	.st9{opacity:0.5;fill:url(#SVGID_00000013893440634439334230000018049903619521810328_);enable-background:new    ;}
	.st10{opacity:0.6;fill:url(#SVGID_00000154396999764079264720000007912836955655474304_);enable-background:new    ;}
	.st11{opacity:0.6;fill:url(#SVGID_00000181072984929636577280000017427618203779788177_);enable-background:new    ;}
	.st12{fill:url(#SVGID_00000011018260080817611060000016659217894121653683_);enable-background:new    ;}
	.st13{opacity:0.6;fill:url(#SVGID_00000041279557004859673630000006081833845144047529_);enable-background:new    ;}
	.st14{fill:url(#SVGID_00000008854151825899865930000004658942271291333822_);enable-background:new    ;}
	.st15{fill:#A3D6DE;}
	.st16{fill:url(#SVGID_00000183234909764386667680000017105786738286937773_);enable-background:new    ;}
	.st17{fill:url(#SVGID_00000017490437660915629380000017268042766126919103_);enable-background:new    ;}
	.st18{fill:url(#SVGID_00000111875289106270082340000010147241660220888247_);enable-background:new    ;}
	.st19{opacity:0.25;fill:#FFFFFF;}
	.st20{fill:url(#SVGID_00000155116829892149260820000004219375875410850480_);enable-background:new    ;}
	.st21{opacity:0.5;fill:url(#SVGID_00000038374984310586226730000009056086232733138340_);enable-background:new    ;}
	.st22{fill:url(#SVGID_00000106109448013739838580000006870982765863144619_);enable-background:new    ;}
	.st23{fill:url(#SVGID_00000090978480820138071040000003232124647272411033_);enable-background:new    ;}
	.st24{fill:url(#SVGID_00000047021877664749842040000018088639981411292315_);enable-background:new    ;}
	.st25{opacity:0.6;fill:url(#SVGID_00000019657321259934433560000003357440751488811664_);enable-background:new    ;}
	.st26{fill:url(#SVGID_00000034770607389926181170000006977276646451649181_);enable-background:new    ;}
	.st27{fill:url(#SVGID_00000116947053617344031970000012890915732435960217_);enable-background:new    ;}
	.st28{fill:url(#SVGID_00000032608843401379110960000005807630987560437121_);enable-background:new    ;}
	.st29{fill:url(#SVGID_00000119081511560147721220000016208677259301030565_);enable-background:new    ;}
	.st30{fill:url(#SVGID_00000026874245247461973350000003844548055318077583_);}
	.st31{fill:url(#SVGID_00000043448685278101260690000015505882232483603114_);}
	.st32{fill:url(#SVGID_00000026868559135347860400000000465224260802260389_);}
	.st33{fill:url(#SVGID_00000041273283876735299540000010992872871241418900_);}
	.st34{fill:url(#SVGID_00000096023232310419985870000008318556353061150098_);}
	.st35{fill:url(#SVGID_00000176020000211151906930000002432780501396917941_);}
	.st36{fill:url(#SVGID_00000045580011698313775750000007673307734208237699_);}
	.st37{fill:url(#SVGID_00000029741736477729792980000009164522023890818224_);}
	.st38{fill:url(#SVGID_00000016773628407834454440000017579197123247602576_);}
	.st39{fill:url(#SVGID_00000102541399742146050360000010041128353731324035_);}
	.st40{fill:url(#SVGID_00000127749647533222329300000011231333345852337049_);}
	.st41{fill:url(#SVGID_00000122001340365865611060000009556649540738802326_);}
	.st42{fill:url(#SVGID_00000167385048509312161760000015238703006964586911_);}
	.st43{fill:url(#SVGID_00000032648787458205190930000007954073010627343233_);}
	.st44{fill:url(#SVGID_00000067949350165257631550000000340398918183241616_);}
	.st45{fill:url(#SVGID_00000021089536042265082740000014012303424026867863_);}
	.st46{fill:url(#SVGID_00000121242492872626274210000002269867046982024594_);}
	.st47{fill:#939598;}
</style>
<g>
	<path id="XMLID_00000048459320418262264370000001900645417481926285_" class="st0" d="M67.4,39.2l-5.7,2.1l-4.2-5.6v-0.9
		c0-3.4-2.8-6.2-6.2-6.2h-2.6c-2,0-3.8,1-5,2.5L36,35.1c-0.6,0.3-1.1,0.8-1.4,1.4l-4.5,9.3c-0.7,1.5-0.1,3.4,1.4,4.1
		c0.4,0.2,0.9,0.3,1.3,0.3c1.1,0,2.2-0.6,2.8-1.7l4-8.4l2.9-1.4v18.4l0.7,9.1l-12.7,6.9c-2,1.1-2.7,3.5-1.6,5.5
		c0.7,1.4,2.1,2.1,3.6,2.1c0.7,0,1.3-0.2,1.9-0.5L49.5,72c1.4-0.8,2.3-2.4,2.1-4l-0.7-6.2l4.4,7.9V83c0,2.2,1.8,4,4,4
		c2.2,0,4-1.8,4-4V68.7c0-0.7-0.2-1.4-0.5-2l-5.4-9.6V45.9l0.7,0.9c0.6,0.8,1.5,1.2,2.4,1.2c0.4,0,0.7-0.1,1.1-0.2l7.8-3
		c1.6-0.6,2.4-2.4,1.8-3.9C70.7,39.3,69,38.5,67.4,39.2z"/>
	<path id="XMLID_00000039830122254680237130000009992700619460674176_" class="st0" d="M50,27.3c3.9,0,7.2-3.2,7.2-7.2
		c0-4-3.2-7.2-7.2-7.2c-4,0-7.2,3.2-7.2,7.2C42.9,24.1,46.1,27.3,50,27.3z"/>
</g>
</svg>
