<?xml version="1.0" encoding="utf-8"?>
<!-- Generator: Adobe Illustrator 27.6.1, SVG Export Plug-In . SVG Version: 6.00 Build 0)  -->
<svg version="1.1" id="Layer_1" xmlns="http://www.w3.org/2000/svg" xmlns:xlink="http://www.w3.org/1999/xlink" x="0px" y="0px"
	 viewBox="0 0 100 100" style="enable-background:new 0 0 100 100;" xml:space="preserve">
<style type="text/css">
	.st0{fill:#9E267F;}
	.st1{fill:#1EAB4A;}
	.st2{fill:#4B4B4B;}
	.st3{fill:#ED2024;}
	.st4{fill:url(#SVGID_1_);}
	.st5{fill:url(#SVGID_00000067915880614958080500000018016959635903067815_);}
	.st6{fill:url(#SVGID_00000129196243133147133340000018190665997094373505_);}
	.st7{fill:url(#SVGID_00000013878231701217188290000012650941287065369248_);}
	.st8{opacity:0.5;fill:url(#SVGID_00000152950211345898961930000016886503461567594678_);enable-background:new    ;}
	.st9{opacity:0.5;fill:url(#SVGID_00000050628429806918000950000002350382073098211254_);enable-background:new    ;}
	.st10{opacity:0.6;fill:url(#SVGID_00000148654773079371679590000000013484544845582731_);enable-background:new    ;}
	.st11{opacity:0.6;fill:url(#SVGID_00000036958814400493380020000010599882948942379691_);enable-background:new    ;}
	.st12{fill:url(#SVGID_00000159437096751051671340000008232327564949982396_);enable-background:new    ;}
	.st13{opacity:0.6;fill:url(#SVGID_00000164484939455699658280000011021260471494806173_);enable-background:new    ;}
	.st14{fill:url(#SVGID_00000158716308886629935950000016380689027875866530_);enable-background:new    ;}
	.st15{fill:#A3D6DE;}
	.st16{fill:url(#SVGID_00000035495374977876037390000015236628242862568071_);enable-background:new    ;}
	.st17{fill:url(#SVGID_00000065075958083196770350000006024363856961155484_);enable-background:new    ;}
	.st18{fill:url(#SVGID_00000124859624199476517000000014947162224841209733_);enable-background:new    ;}
	.st19{opacity:0.25;fill:#FFFFFF;}
	.st20{fill:url(#SVGID_00000124129012653353202240000007392917906714014380_);enable-background:new    ;}
	.st21{opacity:0.5;fill:url(#SVGID_00000163051676129714921590000004039499521340017808_);enable-background:new    ;}
	.st22{fill:url(#SVGID_00000027594613888537215100000017618427830407643528_);enable-background:new    ;}
	.st23{fill:url(#SVGID_00000083065234548302208900000011312830336890945681_);enable-background:new    ;}
	.st24{fill:url(#SVGID_00000134936117364611991870000008342001486659797134_);enable-background:new    ;}
	.st25{opacity:0.6;fill:url(#SVGID_00000000181791239348200820000014385007619061223865_);enable-background:new    ;}
	.st26{fill:url(#SVGID_00000144324269726639117460000003848203370091960766_);enable-background:new    ;}
	.st27{fill:url(#SVGID_00000145751193567605828050000006496813275104121488_);enable-background:new    ;}
	.st28{fill:url(#SVGID_00000174601164209096752700000004205782248575314586_);enable-background:new    ;}
	.st29{fill:url(#SVGID_00000005226658009338240050000001625237325512764820_);enable-background:new    ;}
	.st30{fill:url(#SVGID_00000168109752961754295570000000963306267982200210_);}
	.st31{fill:url(#SVGID_00000126319429474032053970000002157024315953586579_);}
	.st32{fill:url(#SVGID_00000111166494154936739820000002302525662987828357_);}
	.st33{fill:url(#SVGID_00000147188143176558889380000001552767610013016241_);}
	.st34{fill:url(#SVGID_00000151525124318874528640000016685758032945165228_);}
	.st35{fill:url(#SVGID_00000139267468931530709550000006570542559972618158_);}
	.st36{fill:url(#SVGID_00000137126298727314901180000004059734631012880052_);}
	.st37{fill:url(#SVGID_00000099630665297796549840000011222669396231882132_);}
	.st38{fill:url(#SVGID_00000056399705949520418620000004251609018025374103_);}
	.st39{fill:url(#SVGID_00000130643505413895607660000003870713316469305730_);}
	.st40{fill:url(#SVGID_00000183216623123257748770000007930535847269215675_);}
	.st41{fill:url(#SVGID_00000150818399947658787800000001297053823432983184_);}
	.st42{fill:url(#SVGID_00000068640074434256841800000000043439438742671520_);}
	.st43{fill:url(#SVGID_00000094609240520109641440000014048415715372167612_);}
	.st44{fill:url(#SVGID_00000077295005580954301020000012364124062667413636_);}
	.st45{fill:url(#SVGID_00000057128430176641838490000018358259293920189587_);}
	.st46{fill:url(#SVGID_00000141414338860123968350000016333957894846705332_);}
	.st47{fill:#939598;}
</style>
<g>
	<g>
		<linearGradient id="SVGID_1_" gradientUnits="userSpaceOnUse" x1="47.1906" y1="78.8816" x2="47.1906" y2="65.719">
			<stop  offset="0" style="stop-color:#9E267F"/>
			<stop  offset="1" style="stop-color:#5F194A"/>
		</linearGradient>
		<path class="st4" d="M42.2,65.7h2.2v5.6H50v-5.6h2.2v13.2H50v-5.7h-5.6v5.7h-2.2V65.7z"/>
		
			<linearGradient id="SVGID_00000090269089602208241070000011919338807667320986_" gradientUnits="userSpaceOnUse" x1="59.9293" y1="78.8816" x2="59.9293" y2="65.719">
			<stop  offset="0" style="stop-color:#9E267F"/>
			<stop  offset="1" style="stop-color:#5F194A"/>
		</linearGradient>
		<path style="fill:url(#SVGID_00000090269089602208241070000011919338807667320986_);" d="M55.2,65.7h5c2.9,0,4.5,1.3,4.5,4.2
			c0,1.9-0.7,3.2-2.1,3.8l2.2,5.2h-2.4l-1.9-4.7h-3.1v4.7h-2.2V65.7z M60.2,72.3c1.6,0,2.2-1.1,2.2-2.4c0-1.5-0.7-2.3-2.2-2.3h-2.8
			v4.8H60.2z"/>
		
			<linearGradient id="SVGID_00000029018080528401390330000011767102182212667535_" gradientUnits="userSpaceOnUse" x1="73.725" y1="78.8816" x2="73.725" y2="65.719">
			<stop  offset="0" style="stop-color:#9E267F"/>
			<stop  offset="1" style="stop-color:#5F194A"/>
		</linearGradient>
		<path style="fill:url(#SVGID_00000029018080528401390330000011767102182212667535_);" d="M67.1,65.7h3.7L73.7,76l2.9-10.3h3.7
			v13.2h-2.2V68.1h-0.3l-3.1,10.2h-2.2l-3.1-10.2h-0.3v10.8h-2.2V65.7z"/>
		
			<linearGradient id="SVGID_00000021086878123088744830000017062059979733500594_" gradientUnits="userSpaceOnUse" x1="87.107" y1="79.0929" x2="87.107" y2="65.4883">
			<stop  offset="0" style="stop-color:#9E267F"/>
			<stop  offset="1" style="stop-color:#5F194A"/>
		</linearGradient>
		<path style="fill:url(#SVGID_00000021086878123088744830000017062059979733500594_);" d="M82.8,78.6l0.2-1.7c1.1,0.1,3,0.3,4,0.3
			c1.6,0,2.4-0.7,2.4-2.1c0-1.1-0.6-1.5-2.6-2c-2.9-0.7-4.1-1.6-4.1-3.9c0-2.7,1.7-3.8,4.4-3.8c1.2,0,3.1,0.3,4.2,0.5l-0.2,1.7
			c-1.2-0.1-3-0.3-3.8-0.3c-1.6,0-2.4,0.6-2.4,1.7c0,1.2,0.7,1.5,2.9,2.1c2.7,0.8,3.7,1.5,3.7,3.7c0,2.9-1.8,4.1-4.4,4.1
			C85.9,79.1,83.9,78.8,82.8,78.6z"/>
	</g>
	<g>
		
			<linearGradient id="SVGID_00000178190744494062147640000010717834909535352766_" gradientUnits="userSpaceOnUse" x1="29.5132" y1="26.7114" x2="77.6339" y2="26.7114" gradientTransform="matrix(0.9992 -4.120000e-02 4.120000e-02 0.9992 -2.321 -2.5823)">
			<stop  offset="0" style="stop-color:#9E267F"/>
			<stop  offset="1" style="stop-color:#5F194A"/>
		</linearGradient>
		<path style="opacity:0.5;fill:url(#SVGID_00000178190744494062147640000010717834909535352766_);enable-background:new    ;" d="
			M38.4,21.1v-0.2c-2.4,0.9-4.7,2-7.1,3.3c0.1,0,0.2,0.1,0.2,0.1C33.8,23,36.1,22,38.4,21.1z"/>
		
			<linearGradient id="SVGID_00000057832573612887097780000001922343723190812058_" gradientUnits="userSpaceOnUse" x1="29.5132" y1="29.0377" x2="77.6339" y2="29.0377" gradientTransform="matrix(0.9992 -4.120000e-02 4.120000e-02 0.9992 -2.321 -2.5823)">
			<stop  offset="0" style="stop-color:#9E267F"/>
			<stop  offset="1" style="stop-color:#5F194A"/>
		</linearGradient>
		<path style="opacity:0.5;fill:url(#SVGID_00000057832573612887097780000001922343723190812058_);enable-background:new    ;" d="
			M29.8,24.5c0.5-0.3,1-0.4,1.3-0.3c-0.4-0.2-1-0.1-1.6,0.2c-0.8,0.4-1.3,1.1-1.1,1.5c0.1,0.2,0.4,0.3,0.7,0.3
			c-0.2,0-0.3-0.1-0.4-0.3C28.5,25.6,29,24.9,29.8,24.5z"/>
		
			<linearGradient id="SVGID_00000041989098084573943000000014865283249333845439_" gradientUnits="userSpaceOnUse" x1="44.1048" y1="68.5404" x2="21.5749" y2="21.6702">
			<stop  offset="0" style="stop-color:#8BBE44"/>
			<stop  offset="0.9949" style="stop-color:#698F3C"/>
		</linearGradient>
		<path style="opacity:0.6;fill:url(#SVGID_00000041989098084573943000000014865283249333845439_);enable-background:new    ;" d="
			M24.9,29.3c-0.1,0.1-0.1,0.1-0.2,0.2c0.3,0,0.7,0,1.1-0.2C25.4,29.3,25.1,29.4,24.9,29.3z"/>
		
			<linearGradient id="SVGID_00000180359047600178579640000013006913635807298735_" gradientUnits="userSpaceOnUse" x1="31.968" y1="74.3744" x2="9.4381" y2="27.5042">
			<stop  offset="0" style="stop-color:#8BBE44"/>
			<stop  offset="0.9949" style="stop-color:#698F3C"/>
		</linearGradient>
		<path style="opacity:0.6;fill:url(#SVGID_00000180359047600178579640000013006913635807298735_);enable-background:new    ;" d="
			M11.9,66.5c-0.7-1.1-1.3-2.3-1.7-3.5C6,51.7,12.3,37.7,24.6,29.1c-0.2-0.4,0.3-1.1,1.1-1.6c0.3-0.2,0.5-0.3,0.8-0.4
			c-0.3,0.1-0.7,0.2-1.1,0.5c-0.8,0.5-1.3,1.3-1.1,1.7C11.9,38,5.6,52.3,9.8,63.9c3.9,10.6,15.6,15.8,28.6,13.7v-1.2
			C27.1,78.1,16.9,74.4,11.9,66.5z"/>
		
			<linearGradient id="SVGID_00000056394782021211506300000013818918651425717687_" gradientUnits="userSpaceOnUse" x1="26.4355" y1="67.1717" x2="-8.1337" y2="21.4184">
			<stop  offset="0" style="stop-color:#8BBE44"/>
			<stop  offset="1" style="stop-color:#698F3C"/>
		</linearGradient>
		<path style="fill:url(#SVGID_00000056394782021211506300000013818918651425717687_);enable-background:new    ;" d="M38.4,71.8
			v-1.1c-9.2,1.4-17.6-1-22.4-6.6c-0.3,0.2-0.5,0.3-0.8,0.4C20,70.6,28.8,73.3,38.4,71.8z"/>
		
			<linearGradient id="SVGID_00000098933910199144189830000008366003461730099131_" gradientUnits="userSpaceOnUse" x1="28.4864" y1="76.048" x2="5.9565" y2="29.1777">
			<stop  offset="0" style="stop-color:#8BBE44"/>
			<stop  offset="0.9949" style="stop-color:#698F3C"/>
		</linearGradient>
		<path style="opacity:0.6;fill:url(#SVGID_00000098933910199144189830000008366003461730099131_);enable-background:new    ;" d="
			M15.2,64.5c-1.1,0.7-2.2,1.3-3.2,2c4.9,7.9,15.2,11.6,26.4,9.9v-4.6C28.8,73.3,20,70.6,15.2,64.5z"/>
		
			<linearGradient id="SVGID_00000047777155962856148810000011440090536430346151_" gradientUnits="userSpaceOnUse" x1="24.653" y1="68.5185" x2="-9.9162" y2="22.7652">
			<stop  offset="0" style="stop-color:#8BBE44"/>
			<stop  offset="1" style="stop-color:#698F3C"/>
		</linearGradient>
		<path style="fill:url(#SVGID_00000047777155962856148810000011440090536430346151_);enable-background:new    ;" d="M15.2,64.5
			c-1.1,0.7-2.2,1.3-3.2,2c4.9,7.9,15.2,11.6,26.4,9.9v-4.6C28.8,73.3,20,70.6,15.2,64.5z"/>
		<path class="st15" d="M21.1,61.2c-0.7-0.6-1.4-1.3-2-2.1c-5.8-8-0.6-21.3,11.7-29.5c1.5-1,3.1-1.9,4.6-2.7
			c-1.6,0.8-3.3,1.7-4.8,2.8C18,38,12.6,51.4,18.6,59.5c3.8,5.3,11.5,7,19.8,5.3v-0.5C31.5,65.7,25.1,64.7,21.1,61.2z"/>
		
			<linearGradient id="SVGID_00000111182851473810276010000010920665422220282499_" gradientUnits="userSpaceOnUse" x1="65.338" y1="91.4957" x2="-43.2514" y2="-9.7014">
			<stop  offset="0" style="stop-color:#4ABCCA"/>
			<stop  offset="0.1783" style="stop-color:#46B5C2"/>
			<stop  offset="0.4399" style="stop-color:#3AA3AF"/>
			<stop  offset="0.7513" style="stop-color:#258B94"/>
			<stop  offset="1" style="stop-color:#0A757D"/>
		</linearGradient>
		<path style="fill:url(#SVGID_00000111182851473810276010000010920665422220282499_);enable-background:new    ;" d="M38.4,60.1
			v-0.4c-5.1,1.4-9.7,1.3-13.2-0.7c-0.4,0.2-0.8,0.4-1.2,0.6C27.7,61.6,32.9,61.6,38.4,60.1z"/>
		<path class="st15" d="M24,59.6c-1,0.5-2,1-2.9,1.6c4.1,3.5,10.4,4.6,17.3,3.2v-4.2C32.9,61.6,27.7,61.6,24,59.6z"/>
		
			<linearGradient id="SVGID_00000051358456005897441170000016448409412326192542_" gradientUnits="userSpaceOnUse" x1="64.1722" y1="92.7467" x2="-44.4171" y2="-8.4505">
			<stop  offset="0" style="stop-color:#4ABCCA"/>
			<stop  offset="0.1783" style="stop-color:#46B5C2"/>
			<stop  offset="0.4399" style="stop-color:#3AA3AF"/>
			<stop  offset="0.7513" style="stop-color:#258B94"/>
			<stop  offset="1" style="stop-color:#0A757D"/>
		</linearGradient>
		<path style="fill:url(#SVGID_00000051358456005897441170000016448409412326192542_);enable-background:new    ;" d="M24,59.6
			c-1,0.5-2,1-2.9,1.6c4.1,3.5,10.4,4.6,17.3,3.2v-4.2C32.9,61.6,27.7,61.6,24,59.6z"/>
		
			<linearGradient id="SVGID_00000176762594349701165570000001404375505133360009_" gradientUnits="userSpaceOnUse" x1="52.3625" y1="53.2267" x2="8.6413" y2="-15.7107">
			<stop  offset="0" style="stop-color:#9E267F"/>
			<stop  offset="1" style="stop-color:#5F194A"/>
		</linearGradient>
		<path style="fill:url(#SVGID_00000176762594349701165570000001404375505133360009_);enable-background:new    ;" d="M31.4,24.4
			C31.5,24.5,31.4,24.4,31.4,24.4c0.2,0.4-0.3,1-1.1,1.5c-0.4,0.2-0.8,0.3-1.1,0.3c0.4,0.1,0.9,0,1.4-0.3c0.8-0.4,1.3-1.1,1-1.5
			c0,0,0,0,0,0c2.3-1.1,4.5-2.1,6.8-2.8v-0.1C36,22.3,33.7,23.2,31.4,24.4z"/>
		<path class="st19" d="M31.4,24.4C31.5,24.5,31.4,24.4,31.4,24.4c0.2,0.4-0.3,1-1.1,1.5c-0.4,0.2-0.8,0.3-1.1,0.3
			c0.4,0.1,0.9,0,1.4-0.3c0.8-0.4,1.3-1.1,1-1.5c0,0,0,0,0,0c2.3-1.1,4.5-2.1,6.8-2.8v-0.1C36,22.3,33.7,23.2,31.4,24.4z"/>
		
			<linearGradient id="SVGID_00000050635695311825060710000003325202245797055646_" gradientUnits="userSpaceOnUse" x1="50.3982" y1="54.4725" x2="6.6771" y2="-14.465">
			<stop  offset="0" style="stop-color:#9E267F"/>
			<stop  offset="1" style="stop-color:#5F194A"/>
		</linearGradient>
		<path style="fill:url(#SVGID_00000050635695311825060710000003325202245797055646_);enable-background:new    ;" d="M31.3,24.2
			c-0.1,0-0.1,0-0.2-0.1C31.2,24.2,31.2,24.2,31.3,24.2C31.3,24.2,31.3,24.2,31.3,24.2z"/>
		<path class="st19" d="M31.3,24.2c-0.1,0-0.1,0-0.2-0.1C31.2,24.2,31.2,24.2,31.3,24.2C31.3,24.2,31.3,24.2,31.3,24.2z"/>
		
			<linearGradient id="SVGID_00000165196762400824201680000005022460416449399733_" gradientUnits="userSpaceOnUse" x1="29.5132" y1="27.7139" x2="77.6339" y2="27.7139" gradientTransform="matrix(0.9992 -4.120000e-02 4.120000e-02 0.9992 -2.321 -2.5823)">
			<stop  offset="0" style="stop-color:#9E267F"/>
			<stop  offset="1" style="stop-color:#5F194A"/>
		</linearGradient>
		<path style="opacity:0.5;fill:url(#SVGID_00000165196762400824201680000005022460416449399733_);enable-background:new    ;" d="
			M30.3,25.9c0.8-0.4,1.3-1,1.1-1.5c0,0,0.1,0.1,0,0c2.3-1.2,4.7-2.1,7-2.9v-0.4c-2.3,0.9-4.6,1.9-6.9,3.2c-0.1,0-0.1-0.1-0.2-0.1
			c0,0,0,0,0,0c0,0-0.1,0-0.1-0.1c-0.4-0.1-0.9,0-1.3,0.3c-0.8,0.4-1.3,1.1-1,1.5c0.1,0.1,0.2,0.2,0.4,0.3
			C29.5,26.2,29.9,26.1,30.3,25.9z"/>
		
			<linearGradient id="SVGID_00000102541754854829119480000007813186701287587238_" gradientUnits="userSpaceOnUse" x1="52.3664" y1="53.2242" x2="8.6452" y2="-15.7132">
			<stop  offset="0" style="stop-color:#9E267F"/>
			<stop  offset="1" style="stop-color:#5F194A"/>
		</linearGradient>
		<path style="fill:url(#SVGID_00000102541754854829119480000007813186701287587238_);enable-background:new    ;" d="M30.3,25.9
			c0.8-0.4,1.3-1,1.1-1.5c0,0,0.1,0.1,0,0c2.3-1.2,4.7-2.1,7-2.9v-0.4c-2.3,0.9-4.6,1.9-6.9,3.2c-0.1,0-0.1-0.1-0.2-0.1c0,0,0,0,0,0
			c0,0-0.1,0-0.1-0.1c-0.4-0.1-0.9,0-1.3,0.3c-0.8,0.4-1.3,1.1-1,1.5c0.1,0.1,0.2,0.2,0.4,0.3C29.5,26.2,29.9,26.1,30.3,25.9z"/>
		<path class="st19" d="M30.3,25.9c0.8-0.4,1.3-1,1.1-1.5c0,0,0.1,0.1,0,0c2.3-1.2,4.7-2.1,7-2.9v-0.4c-2.3,0.9-4.6,1.9-6.9,3.2
			c-0.1,0-0.1-0.1-0.2-0.1c0,0,0,0,0,0c0,0-0.1,0-0.1-0.1c-0.4-0.1-0.9,0-1.3,0.3c-0.8,0.4-1.3,1.1-1,1.5c0.1,0.1,0.2,0.2,0.4,0.3
			C29.5,26.2,29.9,26.1,30.3,25.9z"/>
		
			<linearGradient id="SVGID_00000151535383650758079500000009806306539693995177_" gradientUnits="userSpaceOnUse" x1="31.9973" y1="62.9694" x2="-2.5719" y2="17.2161">
			<stop  offset="0" style="stop-color:#8BBE44"/>
			<stop  offset="1" style="stop-color:#698F3C"/>
		</linearGradient>
		<path style="fill:url(#SVGID_00000151535383650758079500000009806306539693995177_);enable-background:new    ;" d="M12.4,59.7
			c0.7,1.8,1.6,3.4,2.7,4.9c0.2-0.1,0.5-0.3,0.8-0.4c-1.3-1.5-2.4-3.3-3.1-5.2c-3.6-9.6,1.6-21.5,11.8-29.4c-0.1,0-0.1,0-0.2,0
			C14.1,37.5,8.8,49.8,12.4,59.7z"/>
		<path class="st19" d="M12.4,59.7c0.7,1.8,1.6,3.4,2.7,4.9c0.2-0.1,0.5-0.3,0.8-0.4c-1.3-1.5-2.4-3.3-3.1-5.2
			c-3.6-9.6,1.6-21.5,11.8-29.4c-0.1,0-0.1,0-0.2,0C14.1,37.5,8.8,49.8,12.4,59.7z"/>
		
			<linearGradient id="SVGID_00000109715320343899515530000002564188924346946180_" gradientUnits="userSpaceOnUse" x1="45.3709" y1="52.8649" x2="10.8017" y2="7.1116">
			<stop  offset="0" style="stop-color:#8BBE44"/>
			<stop  offset="1" style="stop-color:#698F3C"/>
		</linearGradient>
		<path style="fill:url(#SVGID_00000109715320343899515530000002564188924346946180_);enable-background:new    ;" d="M27.3,27.3
			c0.2,0.4-0.2,1.1-1.1,1.7c-0.1,0.1-0.3,0.2-0.4,0.2c0.2-0.1,0.5-0.2,0.8-0.4c0.8-0.5,1.3-1.3,1-1.7c-0.2-0.3-0.6-0.3-1.1-0.1
			C26.8,27,27.2,27,27.3,27.3z"/>
		<path class="st19" d="M27.3,27.3c0.2,0.4-0.2,1.1-1.1,1.7c-0.1,0.1-0.3,0.2-0.4,0.2c0.2-0.1,0.5-0.2,0.8-0.4
			c0.8-0.5,1.3-1.3,1-1.7c-0.2-0.3-0.6-0.3-1.1-0.1C26.8,27,27.2,27,27.3,27.3z"/>
		
			<linearGradient id="SVGID_00000078749894711185443330000018258457154106032791_" gradientUnits="userSpaceOnUse" x1="32.6218" y1="74.0602" x2="10.0919" y2="27.1899">
			<stop  offset="0" style="stop-color:#8BBE44"/>
			<stop  offset="0.9949" style="stop-color:#698F3C"/>
		</linearGradient>
		<path style="opacity:0.6;fill:url(#SVGID_00000078749894711185443330000018258457154106032791_);enable-background:new    ;" d="
			M24.6,29.1C12.3,37.7,6,51.7,10.2,63c0.5,1.3,1.1,2.4,1.7,3.5c1-0.6,2.1-1.3,3.2-2c-1.1-1.4-2.1-3.1-2.7-4.9
			c-3.6-9.9,1.6-22.1,12.1-30.3c0,0,0.1,0,0.2,0c0.1-0.1,0.1-0.1,0.2-0.2c0.2,0.1,0.6,0,0.9-0.1c0.1-0.1,0.3-0.1,0.4-0.2
			c0.8-0.5,1.3-1.3,1.1-1.7c-0.1-0.2-0.4-0.3-0.8-0.2c-0.3,0.1-0.5,0.2-0.8,0.4C24.9,28,24.4,28.7,24.6,29.1z"/>
		
			<linearGradient id="SVGID_00000171696191320848401980000014145515877826645402_" gradientUnits="userSpaceOnUse" x1="31.8593" y1="63.0737" x2="-2.7099" y2="17.3204">
			<stop  offset="0" style="stop-color:#8BBE44"/>
			<stop  offset="1" style="stop-color:#698F3C"/>
		</linearGradient>
		<path style="fill:url(#SVGID_00000171696191320848401980000014145515877826645402_);enable-background:new    ;" d="M24.6,29.1
			C12.3,37.7,6,51.7,10.2,63c0.5,1.3,1.1,2.4,1.7,3.5c1-0.6,2.1-1.3,3.2-2c-1.1-1.4-2.1-3.1-2.7-4.9c-3.6-9.9,1.6-22.1,12.1-30.3
			c0,0,0.1,0,0.2,0c0.1-0.1,0.1-0.1,0.2-0.2c0.2,0.1,0.6,0,0.9-0.1c0.1-0.1,0.3-0.1,0.4-0.2c0.8-0.5,1.3-1.3,1.1-1.7
			c-0.1-0.2-0.4-0.3-0.8-0.2c-0.3,0.1-0.5,0.2-0.8,0.4C24.9,28,24.4,28.7,24.6,29.1z"/>
		<path class="st19" d="M24.6,29.1C12.3,37.7,6,51.7,10.2,63c0.5,1.3,1.1,2.4,1.7,3.5c1-0.6,2.1-1.3,3.2-2c-1.1-1.4-2.1-3.1-2.7-4.9
			c-3.6-9.9,1.6-22.1,12.1-30.3c0,0,0.1,0,0.2,0c0.1-0.1,0.1-0.1,0.2-0.2c0.2,0.1,0.6,0,0.9-0.1c0.1-0.1,0.3-0.1,0.4-0.2
			c0.8-0.5,1.3-1.3,1.1-1.7c-0.1-0.2-0.4-0.3-0.8-0.2c-0.3,0.1-0.5,0.2-0.8,0.4C24.9,28,24.4,28.7,24.6,29.1z"/>
		
			<linearGradient id="SVGID_00000168812295088304907590000011734351718000367030_" gradientUnits="userSpaceOnUse" x1="73.4951" y1="82.7427" x2="-35.0942" y2="-18.4544">
			<stop  offset="0" style="stop-color:#4ABCCA"/>
			<stop  offset="0.1783" style="stop-color:#46B5C2"/>
			<stop  offset="0.4399" style="stop-color:#3AA3AF"/>
			<stop  offset="0.7513" style="stop-color:#258B94"/>
			<stop  offset="1" style="stop-color:#0A757D"/>
		</linearGradient>
		<path style="fill:url(#SVGID_00000168812295088304907590000011734351718000367030_);enable-background:new    ;" d="M31,30.2
			C20,37.7,15.1,49.3,20.3,56.5c1,1.3,2.2,2.3,3.6,3.1c0.4-0.2,0.8-0.4,1.2-0.6c-1.3-0.7-2.4-1.7-3.3-2.9
			c-5.1-7.1-1.1-17.9,9.8-25.2c2.2-1.5,4.5-2.7,6.7-3.6v-0.7C35.9,27.4,33.4,28.6,31,30.2z"/>
		<path class="st19" d="M31,30.2C20,37.7,15.1,49.3,20.3,56.5c1,1.3,2.2,2.3,3.6,3.1c0.4-0.2,0.8-0.4,1.2-0.6
			c-1.3-0.7-2.4-1.7-3.3-2.9c-5.1-7.1-1.1-17.9,9.8-25.2c2.2-1.5,4.5-2.7,6.7-3.6v-0.7C35.9,27.4,33.4,28.6,31,30.2z"/>
		
			<linearGradient id="SVGID_00000069361625678929126490000011261620155344398520_" gradientUnits="userSpaceOnUse" x1="84.7034" y1="70.7158" x2="-23.886" y2="-30.4814">
			<stop  offset="0" style="stop-color:#4ABCCA"/>
			<stop  offset="0.1783" style="stop-color:#46B5C2"/>
			<stop  offset="0.4399" style="stop-color:#3AA3AF"/>
			<stop  offset="0.7513" style="stop-color:#258B94"/>
			<stop  offset="1" style="stop-color:#0A757D"/>
		</linearGradient>
		<path style="fill:url(#SVGID_00000069361625678929126490000011261620155344398520_);enable-background:new    ;" d="M38.4,25.5
			c-1,0.4-2,0.8-3,1.3C36.4,26.3,37.4,25.9,38.4,25.5L38.4,25.5z"/>
		<path class="st19" d="M38.4,25.5c-1,0.4-2,0.8-3,1.3C36.4,26.3,37.4,25.9,38.4,25.5L38.4,25.5z"/>
		<path class="st15" d="M19.1,59c0.6,0.8,1.3,1.5,2,2.1c0.9-0.5,1.9-1,2.9-1.6c-1.4-0.7-2.7-1.8-3.6-3.1C15.1,49.3,20,37.7,31,30.2
			c2.4-1.6,4.9-2.8,7.3-3.8v-0.9c-1,0.4-2,0.8-3,1.3c-1.6,0.8-3.1,1.7-4.6,2.7C18.5,37.8,13.3,51,19.1,59z"/>
		
			<linearGradient id="SVGID_00000070120322379281484060000017062276835674794681_" gradientUnits="userSpaceOnUse" x1="72.7947" y1="83.4943" x2="-35.7947" y2="-17.7028">
			<stop  offset="0" style="stop-color:#4ABCCA"/>
			<stop  offset="0.1783" style="stop-color:#46B5C2"/>
			<stop  offset="0.4399" style="stop-color:#3AA3AF"/>
			<stop  offset="0.7513" style="stop-color:#258B94"/>
			<stop  offset="1" style="stop-color:#0A757D"/>
		</linearGradient>
		<path style="fill:url(#SVGID_00000070120322379281484060000017062276835674794681_);enable-background:new    ;" d="M19.1,59
			c0.6,0.8,1.3,1.5,2,2.1c0.9-0.5,1.9-1,2.9-1.6c-1.4-0.7-2.7-1.8-3.6-3.1C15.1,49.3,20,37.7,31,30.2c2.4-1.6,4.9-2.8,7.3-3.8v-0.9
			c-1,0.4-2,0.8-3,1.3c-1.6,0.8-3.1,1.7-4.6,2.7C18.5,37.8,13.3,51,19.1,59z"/>
		<path class="st19" d="M19.1,59c0.6,0.8,1.3,1.5,2,2.1c0.9-0.5,1.9-1,2.9-1.6c-1.4-0.7-2.7-1.8-3.6-3.1C15.1,49.3,20,37.7,31,30.2
			c2.4-1.6,4.9-2.8,7.3-3.8v-0.9c-1,0.4-2,0.8-3,1.3c-1.6,0.8-3.1,1.7-4.6,2.7C18.5,37.8,13.3,51,19.1,59z"/>
	</g>
	<g>
		
			<linearGradient id="SVGID_00000179626433941206465110000002618593996621839257_" gradientUnits="userSpaceOnUse" x1="65.795" y1="45.63" x2="65.795" y2="34.4994">
			<stop  offset="0" style="stop-color:#4ABCCA"/>
			<stop  offset="0.1783" style="stop-color:#46B5C2"/>
			<stop  offset="0.4399" style="stop-color:#3AA3AF"/>
			<stop  offset="0.7513" style="stop-color:#258B94"/>
			<stop  offset="1" style="stop-color:#0A757D"/>
		</linearGradient>
		<path style="fill:url(#SVGID_00000179626433941206465110000002618593996621839257_);" d="M70.7,45.6h-2.5c-0.3,0-0.6-0.3-0.6-0.6
			c0-0.3,0.3-0.6,0.6-0.6h1.9V40c0-1.1-0.4-2.2-1.3-3c-0.8-0.8-1.9-1.3-3-1.3c-2.4,0-4.3,1.9-4.3,4.3v4.3h1.9c0.3,0,0.6,0.3,0.6,0.6
			c0,0.3-0.3,0.6-0.6,0.6h-2.5c-0.3,0-0.6-0.3-0.6-0.6v-5c0-3,2.5-5.5,5.5-5.5c1.5,0,2.8,0.6,3.9,1.6c1,1,1.6,2.5,1.6,3.9v4.9
			C71.3,45.3,71,45.6,70.7,45.6z"/>
		
			<linearGradient id="SVGID_00000003819596223177119200000004207579229465103773_" gradientUnits="userSpaceOnUse" x1="63.3432" y1="53.5246" x2="63.3432" y2="42.4428">
			<stop  offset="0" style="stop-color:#4ABCCA"/>
			<stop  offset="0.1783" style="stop-color:#46B5C2"/>
			<stop  offset="0.4399" style="stop-color:#3AA3AF"/>
			<stop  offset="0.7513" style="stop-color:#258B94"/>
			<stop  offset="1" style="stop-color:#0A757D"/>
		</linearGradient>
		<path style="fill:url(#SVGID_00000003819596223177119200000004207579229465103773_);" d="M63.3,53.5c-0.3,0-0.6-0.3-0.6-0.6v-9.8
			c0-0.3,0.3-0.6,0.6-0.6c0.3,0,0.6,0.3,0.6,0.6v9.8C64,53.2,63.7,53.5,63.3,53.5z"/>
		
			<linearGradient id="SVGID_00000169534766863713496740000013016594701444542137_" gradientUnits="userSpaceOnUse" x1="68.2467" y1="53.5246" x2="68.2467" y2="42.4428">
			<stop  offset="0" style="stop-color:#4ABCCA"/>
			<stop  offset="0.1783" style="stop-color:#46B5C2"/>
			<stop  offset="0.4399" style="stop-color:#3AA3AF"/>
			<stop  offset="0.7513" style="stop-color:#258B94"/>
			<stop  offset="1" style="stop-color:#0A757D"/>
		</linearGradient>
		<path style="fill:url(#SVGID_00000169534766863713496740000013016594701444542137_);" d="M68.2,53.5c-0.3,0-0.6-0.3-0.6-0.6v-9.8
			c0-0.3,0.3-0.6,0.6-0.6c0.3,0,0.6,0.3,0.6,0.6v9.8C68.9,53.2,68.6,53.5,68.2,53.5z"/>
		
			<linearGradient id="SVGID_00000165949078062323502740000000176080980097974162_" gradientUnits="userSpaceOnUse" x1="65.795" y1="53.5246" x2="65.795" y2="47.3463">
			<stop  offset="0" style="stop-color:#4ABCCA"/>
			<stop  offset="0.1783" style="stop-color:#46B5C2"/>
			<stop  offset="0.4399" style="stop-color:#3AA3AF"/>
			<stop  offset="0.7513" style="stop-color:#258B94"/>
			<stop  offset="1" style="stop-color:#0A757D"/>
		</linearGradient>
		<path style="fill:url(#SVGID_00000165949078062323502740000000176080980097974162_);" d="M65.8,53.5c-0.3,0-0.6-0.3-0.6-0.6V48
			c0-0.3,0.3-0.6,0.6-0.6c0.3,0,0.6,0.3,0.6,0.6v4.9C66.4,53.2,66.1,53.5,65.8,53.5z"/>
		
			<linearGradient id="SVGID_00000160185096541268407420000013978419884436811657_" gradientUnits="userSpaceOnUse" x1="65.7947" y1="35.7741" x2="65.7947" y2="28.4189">
			<stop  offset="0" style="stop-color:#4ABCCA"/>
			<stop  offset="0.1783" style="stop-color:#46B5C2"/>
			<stop  offset="0.4399" style="stop-color:#3AA3AF"/>
			<stop  offset="0.7513" style="stop-color:#258B94"/>
			<stop  offset="1" style="stop-color:#0A757D"/>
		</linearGradient>
		<path style="fill:url(#SVGID_00000160185096541268407420000013978419884436811657_);" d="M65.8,35.8c-2,0-3.7-1.7-3.7-3.7
			c0-2,1.7-3.7,3.7-3.7c2,0,3.7,1.7,3.7,3.7C69.5,34.1,67.8,35.8,65.8,35.8z M65.8,29.6c-1.4,0-2.5,1.1-2.5,2.5
			c0,1.4,1.1,2.5,2.5,2.5c1.4,0,2.5-1.1,2.5-2.5C68.2,30.7,67.2,29.6,65.8,29.6z"/>
		
			<linearGradient id="SVGID_00000079459278049801685710000011388527753657306791_" gradientUnits="userSpaceOnUse" x1="59.0774" y1="31.4591" x2="59.0774" y2="24.104">
			<stop  offset="0" style="stop-color:#4ABCCA"/>
			<stop  offset="0.1783" style="stop-color:#46B5C2"/>
			<stop  offset="0.4399" style="stop-color:#3AA3AF"/>
			<stop  offset="0.7513" style="stop-color:#258B94"/>
			<stop  offset="1" style="stop-color:#0A757D"/>
		</linearGradient>
		<path style="fill:url(#SVGID_00000079459278049801685710000011388527753657306791_);" d="M59.1,31.5c-2,0-3.7-1.7-3.7-3.7
			s1.7-3.7,3.7-3.7c2,0,3.7,1.7,3.7,3.7S61.1,31.5,59.1,31.5z M59.1,25.3c-1.4,0-2.5,1.1-2.5,2.5c0,1.4,1.1,2.5,2.5,2.5
			c1.4,0,2.5-1.1,2.5-2.5C61.5,26.4,60.4,25.3,59.1,25.3z"/>
		
			<linearGradient id="SVGID_00000176747239383706161150000013171292388191080837_" gradientUnits="userSpaceOnUse" x1="72.5619" y1="31.4591" x2="72.5619" y2="24.104">
			<stop  offset="0" style="stop-color:#4ABCCA"/>
			<stop  offset="0.1783" style="stop-color:#46B5C2"/>
			<stop  offset="0.4399" style="stop-color:#3AA3AF"/>
			<stop  offset="0.7513" style="stop-color:#258B94"/>
			<stop  offset="1" style="stop-color:#0A757D"/>
		</linearGradient>
		<path style="fill:url(#SVGID_00000176747239383706161150000013171292388191080837_);" d="M72.6,31.5c-2,0-3.7-1.7-3.7-3.7
			s1.7-3.7,3.7-3.7c2,0,3.7,1.7,3.7,3.7S74.6,31.5,72.6,31.5z M72.6,25.3c-1.4,0-2.5,1.1-2.5,2.5c0,1.4,1.1,2.5,2.5,2.5
			c1.4,0,2.5-1.1,2.5-2.5C75,26.4,73.9,25.3,72.6,25.3z"/>
		
			<linearGradient id="SVGID_00000172398785196826608340000006139010406547874733_" gradientUnits="userSpaceOnUse" x1="53.8059" y1="46.5616" x2="53.8059" y2="36.7059">
			<stop  offset="0" style="stop-color:#4ABCCA"/>
			<stop  offset="0.1783" style="stop-color:#46B5C2"/>
			<stop  offset="0.4399" style="stop-color:#3AA3AF"/>
			<stop  offset="0.7513" style="stop-color:#258B94"/>
			<stop  offset="1" style="stop-color:#0A757D"/>
		</linearGradient>
		<path style="fill:url(#SVGID_00000172398785196826608340000006139010406547874733_);" d="M53.8,46.6h-2.2c-0.3,0-0.6-0.3-0.6-0.6
			v-4.3c0-2.7,2.2-4.9,4.9-4.9c0.3,0,0.6,0.3,0.6,0.6c0,0.3-0.3,0.6-0.6,0.6c-2,0-3.7,1.7-3.7,3.7v3.7h1.5c0.3,0,0.6,0.3,0.6,0.6
			C54.5,46.3,54.2,46.6,53.8,46.6z"/>
		
			<linearGradient id="SVGID_00000134935770488479433800000011108366131045132434_" gradientUnits="userSpaceOnUse" x1="53.8306" y1="53.5246" x2="53.8306" y2="43.7178">
			<stop  offset="0" style="stop-color:#4ABCCA"/>
			<stop  offset="0.1783" style="stop-color:#46B5C2"/>
			<stop  offset="0.4399" style="stop-color:#3AA3AF"/>
			<stop  offset="0.7513" style="stop-color:#258B94"/>
			<stop  offset="1" style="stop-color:#0A757D"/>
		</linearGradient>
		<path style="fill:url(#SVGID_00000134935770488479433800000011108366131045132434_);" d="M53.8,53.5c-0.3,0-0.6-0.3-0.6-0.6v-8.5
			c0-0.3,0.3-0.6,0.6-0.6c0.3,0,0.6,0.3,0.6,0.6v8.6C54.5,53.2,54.2,53.5,53.8,53.5z"/>
		
			<linearGradient id="SVGID_00000082353622747341576130000009406860127257768869_" gradientUnits="userSpaceOnUse" x1="58.1455" y1="53.5246" x2="58.1455" y2="43.7178">
			<stop  offset="0" style="stop-color:#4ABCCA"/>
			<stop  offset="0.1783" style="stop-color:#46B5C2"/>
			<stop  offset="0.4399" style="stop-color:#3AA3AF"/>
			<stop  offset="0.7513" style="stop-color:#258B94"/>
			<stop  offset="1" style="stop-color:#0A757D"/>
		</linearGradient>
		<path style="fill:url(#SVGID_00000082353622747341576130000009406860127257768869_);" d="M58.1,53.5c-0.3,0-0.6-0.3-0.6-0.6v-8.5
			c0-0.3,0.3-0.6,0.6-0.6c0.3,0,0.6,0.3,0.6,0.6v8.6C58.7,53.2,58.5,53.5,58.1,53.5z"/>
		
			<linearGradient id="SVGID_00000168105857520840298720000013939115046003376527_" gradientUnits="userSpaceOnUse" x1="55.9881" y1="53.5246" x2="55.9881" y2="47.9348">
			<stop  offset="0" style="stop-color:#4ABCCA"/>
			<stop  offset="0.1783" style="stop-color:#46B5C2"/>
			<stop  offset="0.4399" style="stop-color:#3AA3AF"/>
			<stop  offset="0.7513" style="stop-color:#258B94"/>
			<stop  offset="1" style="stop-color:#0A757D"/>
		</linearGradient>
		<path style="fill:url(#SVGID_00000168105857520840298720000013939115046003376527_);" d="M56,53.5c-0.3,0-0.6-0.3-0.6-0.6v-4.3
			c0-0.3,0.3-0.6,0.6-0.6c0.3,0,0.6,0.3,0.6,0.6v4.3C56.6,53.2,56.3,53.5,56,53.5z"/>
		
			<linearGradient id="SVGID_00000026149009845945766050000014021819827987073929_" gradientUnits="userSpaceOnUse" x1="55.9881" y1="37.9806" x2="55.9881" y2="31.4101">
			<stop  offset="0" style="stop-color:#4ABCCA"/>
			<stop  offset="0.1783" style="stop-color:#46B5C2"/>
			<stop  offset="0.4399" style="stop-color:#3AA3AF"/>
			<stop  offset="0.7513" style="stop-color:#258B94"/>
			<stop  offset="1" style="stop-color:#0A757D"/>
		</linearGradient>
		<path style="fill:url(#SVGID_00000026149009845945766050000014021819827987073929_);" d="M56,38c-1.8,0-3.3-1.5-3.3-3.3
			c0-1.8,1.5-3.3,3.3-3.3c1.8,0,3.3,1.5,3.3,3.3C59.3,36.5,57.8,38,56,38z M56,32.6c-1.1,0-2.1,0.9-2.1,2.1c0,1.1,0.9,2.1,2.1,2.1
			c1.1,0,2.1-0.9,2.1-2.1C58,33.5,57.1,32.6,56,32.6z"/>
		
			<linearGradient id="SVGID_00000021108725047702695840000012121215111958681989_" gradientUnits="userSpaceOnUse" x1="77.7347" y1="46.5616" x2="77.7347" y2="36.6568">
			<stop  offset="0" style="stop-color:#4ABCCA"/>
			<stop  offset="0.1783" style="stop-color:#46B5C2"/>
			<stop  offset="0.4399" style="stop-color:#3AA3AF"/>
			<stop  offset="0.7513" style="stop-color:#258B94"/>
			<stop  offset="1" style="stop-color:#0A757D"/>
		</linearGradient>
		<path style="fill:url(#SVGID_00000021108725047702695840000012121215111958681989_);" d="M79.9,46.6h-2.2c-0.3,0-0.6-0.3-0.6-0.6
			s0.3-0.6,0.6-0.6h1.5v-3.7c0-2-1.7-3.7-3.7-3.7c-0.3,0-0.6-0.3-0.6-0.6c0-0.3,0.3-0.6,0.6-0.6c2.7,0,4.9,2.2,4.9,4.9v4.4
			C80.5,46.3,80.2,46.6,79.9,46.6z"/>
		
			<linearGradient id="SVGID_00000155835361478899372580000002375366582177741454_" gradientUnits="userSpaceOnUse" x1="73.4444" y1="53.5246" x2="73.4444" y2="43.7178">
			<stop  offset="0" style="stop-color:#4ABCCA"/>
			<stop  offset="0.1783" style="stop-color:#46B5C2"/>
			<stop  offset="0.4399" style="stop-color:#3AA3AF"/>
			<stop  offset="0.7513" style="stop-color:#258B94"/>
			<stop  offset="1" style="stop-color:#0A757D"/>
		</linearGradient>
		<path style="fill:url(#SVGID_00000155835361478899372580000002375366582177741454_);" d="M73.4,53.5c-0.3,0-0.6-0.3-0.6-0.6v-8.5
			c0-0.3,0.3-0.6,0.6-0.6s0.6,0.3,0.6,0.6v8.6C74.1,53.2,73.8,53.5,73.4,53.5z"/>
		
			<linearGradient id="SVGID_00000114789681072555893610000011966059315422442136_" gradientUnits="userSpaceOnUse" x1="77.7593" y1="53.5246" x2="77.7593" y2="43.7178">
			<stop  offset="0" style="stop-color:#4ABCCA"/>
			<stop  offset="0.1783" style="stop-color:#46B5C2"/>
			<stop  offset="0.4399" style="stop-color:#3AA3AF"/>
			<stop  offset="0.7513" style="stop-color:#258B94"/>
			<stop  offset="1" style="stop-color:#0A757D"/>
		</linearGradient>
		<path style="fill:url(#SVGID_00000114789681072555893610000011966059315422442136_);" d="M77.8,53.5c-0.3,0-0.6-0.3-0.6-0.6v-8.5
			c0-0.3,0.3-0.6,0.6-0.6s0.6,0.3,0.6,0.6v8.6C78.3,53.2,78.1,53.5,77.8,53.5z"/>
		
			<linearGradient id="SVGID_00000157272916055144331220000007266630944438565252_" gradientUnits="userSpaceOnUse" x1="75.6019" y1="53.5246" x2="75.6019" y2="47.9348">
			<stop  offset="0" style="stop-color:#4ABCCA"/>
			<stop  offset="0.1783" style="stop-color:#46B5C2"/>
			<stop  offset="0.4399" style="stop-color:#3AA3AF"/>
			<stop  offset="0.7513" style="stop-color:#258B94"/>
			<stop  offset="1" style="stop-color:#0A757D"/>
		</linearGradient>
		<path style="fill:url(#SVGID_00000157272916055144331220000007266630944438565252_);" d="M75.6,53.5c-0.3,0-0.6-0.3-0.6-0.6v-4.3
			c0-0.3,0.3-0.6,0.6-0.6c0.3,0,0.6,0.3,0.6,0.6v4.3C76.2,53.2,75.9,53.5,75.6,53.5z"/>
		
			<linearGradient id="SVGID_00000099633837843033746950000001862319262871541695_" gradientUnits="userSpaceOnUse" x1="75.6019" y1="37.9806" x2="75.6019" y2="31.4101">
			<stop  offset="0" style="stop-color:#4ABCCA"/>
			<stop  offset="0.1783" style="stop-color:#46B5C2"/>
			<stop  offset="0.4399" style="stop-color:#3AA3AF"/>
			<stop  offset="0.7513" style="stop-color:#258B94"/>
			<stop  offset="1" style="stop-color:#0A757D"/>
		</linearGradient>
		<path style="fill:url(#SVGID_00000099633837843033746950000001862319262871541695_);" d="M75.6,38c-1.8,0-3.3-1.5-3.3-3.3
			c0-1.8,1.5-3.3,3.3-3.3c1.8,0,3.3,1.5,3.3,3.3C78.9,36.5,77.4,38,75.6,38z M75.6,32.6c-1.1,0-2.1,0.9-2.1,2.1
			c0,1.1,0.9,2.1,2.1,2.1c1.1,0,2.1-0.9,2.1-2.1C77.7,33.5,76.7,32.6,75.6,32.6z"/>
	</g>
	<g>
		<path class="st47" d="M42.2,61.1c0-1.3,0.3-2,1.5-2c0.4,0,1,0.1,1.3,0.1l0,0.4c-0.3-0.1-0.8-0.1-1.2-0.1c-0.9,0-1.1,0.5-1.1,1.6
			c0,1.1,0.2,1.6,1.1,1.6c0.3,0,0.6,0,0.8-0.1v-1.2h-0.6V61H45v1.9c-0.3,0-0.9,0.1-1.3,0.1C42.5,63,42.2,62.3,42.2,61.1z"/>
		<path class="st47" d="M52.7,59.1h0.9l1.1,3.9h-0.4L54,62h-1.7l-0.3,1h-0.4L52.7,59.1z M53.9,61.6l-0.6-2.1H53l-0.6,2.1H53.9z"/>
		<path class="st47" d="M61.5,59.1h0.4v3.5h1.7V63h-2.1V59.1z"/>
		<path class="st47" d="M71,59.1H72L73,63h-0.4l-0.3-1h-1.7l-0.3,1h-0.4L71,59.1z M72.2,61.6l-0.6-2.1h-0.3l-0.6,2.1H72.2z"/>
		<path class="st47" d="M80.6,61.1l-1.2-2h0.5l1,1.6l1-1.6h0.5l-1.2,2l1.2,1.9h-0.5l-1-1.6l-1,1.6h-0.5L80.6,61.1z"/>
		<path class="st47" d="M89.9,61.4l-1.2-2.2h0.5l1,1.8l1-1.8h0.5l-1.2,2.2V63h-0.4V61.4z"/>
	</g>
</g>
</svg>
