<?xml version="1.0" encoding="utf-8"?>
<!-- Generator: Adobe Illustrator 27.6.1, SVG Export Plug-In . SVG Version: 6.00 Build 0)  -->
<svg version="1.1" id="Layer_1" xmlns="http://www.w3.org/2000/svg" xmlns:xlink="http://www.w3.org/1999/xlink" x="0px" y="0px"
	 viewBox="0 0 100 100" style="enable-background:new 0 0 100 100;" xml:space="preserve">
<style type="text/css">
	.st0{fill:#9E267F;}
	.st1{fill:#1EAB4A;}
	.st2{fill:#4B4B4B;}
	.st3{fill:#ED2024;}
	.st4{fill:url(#SVGID_1_);}
	.st5{fill:url(#SVGID_00000137099145830339074690000013761540269200067738_);}
	.st6{fill:url(#SVGID_00000039818223753209815170000003777724337425236913_);}
	.st7{fill:url(#SVGID_00000053507301439463571730000007489194325607375018_);}
	.st8{opacity:0.5;fill:url(#SVGID_00000060009051854261296030000015430053423088628104_);enable-background:new    ;}
	.st9{opacity:0.5;fill:url(#SVGID_00000157294054646978498920000007598328255214901436_);enable-background:new    ;}
	.st10{opacity:0.6;fill:url(#SVGID_00000031922771992450785250000001642113458991436209_);enable-background:new    ;}
	.st11{opacity:0.6;fill:url(#SVGID_00000090252199174091890990000001903393677120557727_);enable-background:new    ;}
	.st12{fill:url(#SVGID_00000057131125643504041150000011552869698243878785_);enable-background:new    ;}
	.st13{opacity:0.6;fill:url(#SVGID_00000013162783181147884980000007186802165767151746_);enable-background:new    ;}
	.st14{fill:url(#SVGID_00000084517269960130044320000009043413932182573968_);enable-background:new    ;}
	.st15{fill:#A3D6DE;}
	.st16{fill:url(#SVGID_00000055672353990906596630000009283318500610120844_);enable-background:new    ;}
	.st17{fill:url(#SVGID_00000150063122288388441860000010380937580259228289_);enable-background:new    ;}
	.st18{fill:url(#SVGID_00000057859289310251707590000013882332743100593072_);enable-background:new    ;}
	.st19{opacity:0.25;fill:#FFFFFF;}
	.st20{fill:url(#SVGID_00000150817169732994729550000004466941739585489832_);enable-background:new    ;}
	.st21{opacity:0.5;fill:url(#SVGID_00000182527036542535264740000018400097607754490287_);enable-background:new    ;}
	.st22{fill:url(#SVGID_00000127730621491849891080000007519997866838769806_);enable-background:new    ;}
	.st23{fill:url(#SVGID_00000143608471615178350450000003116078465910487989_);enable-background:new    ;}
	.st24{fill:url(#SVGID_00000049930761296120762070000003188754787838245284_);enable-background:new    ;}
	.st25{opacity:0.6;fill:url(#SVGID_00000116234752059811439170000018251703714454897285_);enable-background:new    ;}
	.st26{fill:url(#SVGID_00000139290222132454018950000014430113707965509812_);enable-background:new    ;}
	.st27{fill:url(#SVGID_00000026860574125777611390000012218755950231714750_);enable-background:new    ;}
	.st28{fill:url(#SVGID_00000141446295304964609520000008924973862345536128_);enable-background:new    ;}
	.st29{fill:url(#SVGID_00000036963212261586228070000004118685412395206550_);enable-background:new    ;}
	.st30{fill:url(#SVGID_00000180353031790175223200000007080869363004535448_);}
	.st31{fill:url(#SVGID_00000059282525454461076430000017432219866444496263_);}
	.st32{fill:url(#SVGID_00000117649690803572626600000009019443859055794069_);}
	.st33{fill:url(#SVGID_00000017479830432119440630000003068646223224471982_);}
	.st34{fill:url(#SVGID_00000019649490786581280460000007846525990459638687_);}
	.st35{fill:url(#SVGID_00000135668964804815537570000015224149644151795386_);}
	.st36{fill:url(#SVGID_00000053541590705862933230000002832625051515233933_);}
	.st37{fill:url(#SVGID_00000072246650429711533940000007187089779645099434_);}
	.st38{fill:url(#SVGID_00000103950598973464228400000015003147541934268091_);}
	.st39{fill:url(#SVGID_00000088845943158374214440000014897852686708767372_);}
	.st40{fill:url(#SVGID_00000181781235673051650780000015235281128114388408_);}
	.st41{fill:url(#SVGID_00000013915095670053562620000006872263462321467799_);}
	.st42{fill:url(#SVGID_00000150063324182414268680000004431758071950774926_);}
	.st43{fill:url(#SVGID_00000016045703713580960970000012622683386150735530_);}
	.st44{fill:url(#SVGID_00000054247282794938153700000015837842017552530608_);}
	.st45{fill:url(#SVGID_00000165194071298810192940000001433415562181844145_);}
	.st46{fill:url(#SVGID_00000075841736193685775530000015956298149214474151_);}
	.st47{fill:#939598;}
</style>
<g id="SVGRepo_iconCarrier_00000071533093820060719560000011085843881357118345_">
	<path class="st0" d="M86.7,87h-49c-1.6,0-3.1-1.3-3.1-2.9v-0.1v-6.1c0-1.6,1.3-3.1,2.9-3.1h0.1h49c1.6,0,3.1,1.3,3.1,2.9v0.1v6.1
		C89.9,85.5,88.6,87,86.7,87C86.9,87,86.9,87,86.7,87z"/>
	<path class="st0" d="M19.3,87h-6.1c-1.6,0-3.1-1.3-3.1-2.9v-0.1v-6.1c0-1.6,1.3-3.1,2.9-3.1h0.1h6.1c1.6,0,3.1,1.3,3.1,2.9v0.1v6.1
		c0.1,1.6-1.2,2.9-2.8,3.1C19.5,87,19.5,87,19.3,87z"/>
	<path class="st0" d="M55.4,59.8c-1.6,0-3.1-1.3-3.1-2.9v-0.1v-6.1c0-1.6,1.3-3.1,2.9-3.1h0.1h31.3c1.6,0,3.1,1.3,3.1,2.9v0.1v6.1
		c0,1.6-1.3,3.1-2.9,3.1h-0.1H55.4z"/>
	<path class="st0" d="M67.1,32.6c-1.6,0-3.1-1.3-3.1-2.9v-0.1v-6.1c0-1.6,1.3-3.1,2.9-3.1h0.1h19.6c1.6,0,3.1,1.3,3.1,2.9v0.1v6.1
		c0,1.6-1.3,3.1-2.9,3.1h-0.1H67.1z"/>
	<path class="st0" d="M11.7,60.6c-1.6-14.2,9.6-28.9,22.8-31.4l3.6-0.8c0.7-0.1,1.2-0.8,1.1-1.6c0-0.4-0.3-0.7-0.5-0.8l-8.9-6
		c-0.9-0.7-1.1-1.9-0.4-2.7c0,0,0,0,0-0.1l2.3-3.3c0.5-0.9,1.9-1.2,2.7-0.5c0,0,0,0,0.1,0l21.4,14.5c0.9,0.5,1.2,1.9,0.5,2.7
		c0,0,0,0,0,0.1L41.6,52.1c-0.5,0.9-1.9,1.2-2.7,0.5c0,0,0,0-0.1,0l-3.3-2.3c-0.9-0.5-1.2-1.9-0.5-2.7c0,0,0,0,0-0.1l5.8-8.9
		c0.4-0.5,0.4-1.5-0.3-1.9c-0.3-0.3-0.7-0.4-1.1-0.3L37.4,37C27,39,18.3,50.6,19.2,60.7c0,0.9-1.5,2.3-2.5,2.5h-2.5
		C13,63.4,11.7,61.8,11.7,60.6z"/>
</g>
</svg>
