<?xml version="1.0" encoding="utf-8"?>
<!-- Generator: Adobe Illustrator 27.6.1, SVG Export Plug-In . SVG Version: 6.00 Build 0)  -->
<svg version="1.1" id="Layer_1" xmlns="http://www.w3.org/2000/svg" xmlns:xlink="http://www.w3.org/1999/xlink" x="0px" y="0px"
	 viewBox="0 0 100 100" style="enable-background:new 0 0 100 100;" xml:space="preserve">
<style type="text/css">
	.st0{fill:#9E267F;}
	.st1{fill:#1EAB4A;}
	.st2{fill:#4B4B4B;}
	.st3{fill:#ED2024;}
	.st4{fill:url(#SVGID_1_);}
	.st5{fill:url(#SVGID_00000065035772674772490530000004292571360250841985_);}
	.st6{fill:url(#SVGID_00000074421315313649091820000011085485556674764164_);}
	.st7{fill:url(#SVGID_00000144306978221262957070000003935930436898892685_);}
	.st8{opacity:0.5;fill:url(#SVGID_00000169553031617419202380000014153202239254776962_);enable-background:new    ;}
	.st9{opacity:0.5;fill:url(#SVGID_00000165929312034854664230000010204294515645858234_);enable-background:new    ;}
	.st10{opacity:0.6;fill:url(#SVGID_00000148637421515918901190000015790129278268008639_);enable-background:new    ;}
	.st11{opacity:0.6;fill:url(#SVGID_00000149343560130132017640000002960545259510286513_);enable-background:new    ;}
	.st12{fill:url(#SVGID_00000088814137074195990940000005941513486358702506_);enable-background:new    ;}
	.st13{opacity:0.6;fill:url(#SVGID_00000062882862847590132770000003796204958920804232_);enable-background:new    ;}
	.st14{fill:url(#SVGID_00000175312135642660505830000003174581480386659993_);enable-background:new    ;}
	.st15{fill:#A3D6DE;}
	.st16{fill:url(#SVGID_00000026882420008353401170000000434510947745155490_);enable-background:new    ;}
	.st17{fill:url(#SVGID_00000019679105162534736500000017308206799305474952_);enable-background:new    ;}
	.st18{fill:url(#SVGID_00000030482827920570349940000007587849056309913791_);enable-background:new    ;}
	.st19{opacity:0.25;fill:#FFFFFF;}
	.st20{fill:url(#SVGID_00000072270886597489638110000016298955805417227686_);enable-background:new    ;}
	.st21{opacity:0.5;fill:url(#SVGID_00000026855477141431371490000012193234761589631649_);enable-background:new    ;}
	.st22{fill:url(#SVGID_00000070076553982463929760000000665550367093389205_);enable-background:new    ;}
	.st23{fill:url(#SVGID_00000179624159189218326280000005743371096496000700_);enable-background:new    ;}
	.st24{fill:url(#SVGID_00000054961845458409036560000018225871557135993477_);enable-background:new    ;}
	.st25{opacity:0.6;fill:url(#SVGID_00000177486214474626553620000007395793933250223746_);enable-background:new    ;}
	.st26{fill:url(#SVGID_00000168806286222589888010000011218536600281683607_);enable-background:new    ;}
	.st27{fill:url(#SVGID_00000095320223907432152130000008775689394543931806_);enable-background:new    ;}
	.st28{fill:url(#SVGID_00000067221785429423354050000005191020968141553794_);enable-background:new    ;}
	.st29{fill:url(#SVGID_00000116201440235920150750000005667249834635513531_);enable-background:new    ;}
	.st30{fill:url(#SVGID_00000020389821096367162950000008062687736362458769_);}
	.st31{fill:url(#SVGID_00000047762290912703718060000004690135441583804056_);}
	.st32{fill:url(#SVGID_00000165950457065781379720000008291270282713966978_);}
	.st33{fill:url(#SVGID_00000111166187086802390110000013572935964426844337_);}
	.st34{fill:url(#SVGID_00000127733812211587185140000007569570001146600850_);}
	.st35{fill:url(#SVGID_00000106129477356540505850000013431667671984533931_);}
	.st36{fill:url(#SVGID_00000174599972119891656550000017478417234645430666_);}
	.st37{fill:url(#SVGID_00000157269463571006981720000016109243488450618034_);}
	.st38{fill:url(#SVGID_00000173155682723362370000000004093621944309449603_);}
	.st39{fill:url(#SVGID_00000003797054349340989310000003915137614496406442_);}
	.st40{fill:url(#SVGID_00000072264904555038570330000009381281918240753067_);}
	.st41{fill:url(#SVGID_00000125565494697980368530000005313012211121969812_);}
	.st42{fill:url(#SVGID_00000012474816263628824680000003367294417625809536_);}
	.st43{fill:url(#SVGID_00000058551538773641888480000013567121884129246903_);}
	.st44{fill:url(#SVGID_00000065036566929017946030000004155740901576570796_);}
	.st45{fill:url(#SVGID_00000003808338486400255620000014528502180839776649_);}
	.st46{fill:url(#SVGID_00000103987739281116106870000014853121772505139878_);}
	.st47{fill:#939598;}
</style>
<g id="Page-1">
	<g id="correct">
		<path id="Shape" class="st1" d="M34.7,47.8c-1-1-2.7-1-3.7,0c-1,1-1,2.7,0,3.7l12,12c0.5,0.5,1.1,0.8,1.8,0.8c0.1,0,0.1,0,0.1,0
			c0.7-0.1,1.4-0.4,1.9-1l30.1-36.1c0.9-1.1,0.8-2.7-0.3-3.7c-1.1-0.9-2.7-0.8-3.7,0.3l-28.3,34L34.7,47.8z"/>
		<path id="Shape_00000142855487336293469390000000331740936687002512_" class="st2" d="M69.5,18.7c-14.7-9.2-33.4-7-45.7,5.2
			c-14.4,14.4-14.4,37.9,0,52.3C31,83.4,40.5,87,50,87s18.9-3.6,26.1-10.8C88.4,63.9,90.5,45,81.2,30.4c-0.8-1.2-2.4-1.6-3.6-0.8
			c-1.2,0.8-1.6,2.4-0.8,3.6c8,12.6,6.1,28.8-4.5,39.4c-12.4,12.4-32.5,12.4-44.9,0s-12.4-32.5,0-44.9C38,17.1,54.2,15.2,66.8,23
			c1.2,0.8,2.8,0.4,3.6-0.8C71.1,21,70.7,19.4,69.5,18.7z"/>
	</g>
</g>
</svg>
