<?xml version="1.0" encoding="utf-8"?>
<!-- Generator: Adobe Illustrator 27.6.1, SVG Export Plug-In . SVG Version: 6.00 Build 0)  -->
<svg version="1.1" id="Layer_1" xmlns="http://www.w3.org/2000/svg" xmlns:xlink="http://www.w3.org/1999/xlink" x="0px" y="0px"
	 viewBox="0 0 100 100" style="enable-background:new 0 0 100 100;" xml:space="preserve">
<style type="text/css">
	.st0{fill:#9E267F;}
	.st1{fill:#1EAB4A;}
	.st2{fill:#4B4B4B;}
	.st3{fill:#ED2024;}
	.st4{fill:url(#SVGID_1_);}
	.st5{fill:url(#SVGID_00000031896575363756815950000016829854948625005501_);}
	.st6{fill:url(#SVGID_00000072972334150545726350000005907621980161577383_);}
	.st7{fill:url(#SVGID_00000000944403334971838740000010645853902141810618_);}
	.st8{opacity:0.5;fill:url(#SVGID_00000170963225080347593770000003280780240742592423_);enable-background:new    ;}
	.st9{opacity:0.5;fill:url(#SVGID_00000070116887430211669160000009408440976843483573_);enable-background:new    ;}
	.st10{opacity:0.6;fill:url(#SVGID_00000154385163363369955050000003941015986393249678_);enable-background:new    ;}
	.st11{opacity:0.6;fill:url(#SVGID_00000053532021641623357570000011366407677549318803_);enable-background:new    ;}
	.st12{fill:url(#SVGID_00000019671717193104666790000014999689599478223286_);enable-background:new    ;}
	.st13{opacity:0.6;fill:url(#SVGID_00000000915675603863040360000009476287911207509384_);enable-background:new    ;}
	.st14{fill:url(#SVGID_00000039855978268109374220000017850170359453297854_);enable-background:new    ;}
	.st15{fill:#A3D6DE;}
	.st16{fill:url(#SVGID_00000156554001825773963650000012624048805158165432_);enable-background:new    ;}
	.st17{fill:url(#SVGID_00000044865038038067589960000002882029950274900633_);enable-background:new    ;}
	.st18{fill:url(#SVGID_00000178896836581908803200000001897493234852987529_);enable-background:new    ;}
	.st19{opacity:0.25;fill:#FFFFFF;}
	.st20{fill:url(#SVGID_00000104702744224904444560000008114129993270815873_);enable-background:new    ;}
	.st21{opacity:0.5;fill:url(#SVGID_00000132808305428835060270000007977049160695419565_);enable-background:new    ;}
	.st22{fill:url(#SVGID_00000132073059270588322860000016069569674724030381_);enable-background:new    ;}
	.st23{fill:url(#SVGID_00000041996556557289218080000003099781078724282008_);enable-background:new    ;}
	.st24{fill:url(#SVGID_00000172411126202038394590000003266216384003176079_);enable-background:new    ;}
	.st25{opacity:0.6;fill:url(#SVGID_00000010306274077739286250000014365722856945241728_);enable-background:new    ;}
	.st26{fill:url(#SVGID_00000080191998916191683240000006445395944594243247_);enable-background:new    ;}
	.st27{fill:url(#SVGID_00000127019139926651668790000000725347890490102681_);enable-background:new    ;}
	.st28{fill:url(#SVGID_00000035491236461739891100000009098804222592027546_);enable-background:new    ;}
	.st29{fill:url(#SVGID_00000150796463139959664570000012435210119684998547_);enable-background:new    ;}
	.st30{fill:url(#SVGID_00000071540987119511033740000011640294070340510860_);}
	.st31{fill:url(#SVGID_00000156546041449668375180000001521142560128408731_);}
	.st32{fill:url(#SVGID_00000110437584930528372790000005013883972140697015_);}
	.st33{fill:url(#SVGID_00000085237823135365155710000014087264222146663098_);}
	.st34{fill:url(#SVGID_00000042011905008240667300000009452111857067664061_);}
	.st35{fill:url(#SVGID_00000067955748554111316830000001360705716021688980_);}
	.st36{fill:url(#SVGID_00000170958009518429347910000007297907496166310050_);}
	.st37{fill:url(#SVGID_00000138565505332811203520000014414540123697671829_);}
	.st38{fill:url(#SVGID_00000140696085391588639320000003420325145616842115_);}
	.st39{fill:url(#SVGID_00000041297520260718844090000002743731532659141307_);}
	.st40{fill:url(#SVGID_00000112621784509400702120000016753710980880952731_);}
	.st41{fill:url(#SVGID_00000084506099889036325840000011860462957818076083_);}
	.st42{fill:url(#SVGID_00000173143547149673546570000006470928155492303019_);}
	.st43{fill:url(#SVGID_00000149364174266641662460000007495070985387278007_);}
	.st44{fill:url(#SVGID_00000177446232333494817690000005261881877189916553_);}
	.st45{fill:url(#SVGID_00000117673908522066045050000002674352248042195605_);}
	.st46{fill:url(#SVGID_00000129174849637677652370000003260883911140025479_);}
	.st47{fill:#939598;}
</style>
<g id="SVGRepo_iconCarrier_00000034788658975859366370000004542873108202681253_">
	<path class="st0" d="M77.1,50c-1.4,0-2.5,1.1-2.5,2.5v7.4c0,1.4,1.1,2.5,2.5,2.5c1.4,0,2.5-1.1,2.5-2.5v-7.4
		C79.6,51.1,78.5,50,77.1,50z M78.5,40.6c-0.1-0.1-0.3-0.2-0.4-0.2c-0.1-0.1-0.3-0.1-0.5-0.1c-0.8-0.2-1.6,0.1-2.2,0.7
		c-0.5,0.5-0.7,1.1-0.7,1.8c0,1.4,1.1,2.5,2.5,2.5c1.4,0,2.5-1.1,2.5-2.5c0-0.7-0.3-1.3-0.7-1.8L78.5,40.6z"/>
	<path class="st0" d="M72.2,20.4h-2.5c0-4.1-3.3-7.4-7.4-7.4H37.7c-4.1,0-7.4,3.3-7.4,7.4h-2.5c-4,0-7.3,3.2-7.4,7.2v52.2
		c0.1,4,3.4,7.2,7.4,7.2h44.4c4,0,7.3-3.2,7.4-7.2V67.3c0-1.4-1.1-2.5-2.5-2.5c-1.4,0-2.5,1.1-2.5,2.5v12.5
		c-0.1,1.3-1.2,2.3-2.5,2.3H27.8c-1.3,0-2.4-1-2.5-2.3V27.6c0.1-1.3,1.2-2.3,2.5-2.3h2.5c0,4.1,3.3,7.4,7.4,7.4h24.7
		c4.1,0,7.4-3.3,7.4-7.4h2.5c1.3,0,2.4,1,2.5,2.3v5.1c0,1.4,1.1,2.5,2.5,2.5c1.4,0,2.5-1.1,2.5-2.5v-5.1
		C79.5,23.6,76.2,20.4,72.2,20.4z M64.8,25.3c0,1.4-1.1,2.5-2.5,2.5H37.7c-1.4,0-2.5-1.1-2.5-2.5v-4.9c0-1.4,1.1-2.5,2.5-2.5h24.7
		c1.4,0,2.5,1.1,2.5,2.5V25.3z"/>
	<path class="st0" d="M65.4,43.4L45.1,66.2L34.5,55.6c-1-0.9-2.6-0.8-3.5,0.3c-0.8,0.9-0.8,2.3,0,3.2l12.3,12.3
		c0.5,0.5,1.1,0.7,1.7,0.7c0.7,0,1.3-0.3,1.8-0.8L69,46.7c0.9-1,0.8-2.6-0.2-3.5C67.8,42.3,66.3,42.4,65.4,43.4L65.4,43.4z"/>
</g>
</svg>
