<?xml version="1.0" encoding="utf-8"?>
<!-- Generator: Adobe Illustrator 27.6.1, SVG Export Plug-In . SVG Version: 6.00 Build 0)  -->
<svg version="1.1" id="Layer_1" xmlns="http://www.w3.org/2000/svg" xmlns:xlink="http://www.w3.org/1999/xlink" x="0px" y="0px"
	 viewBox="0 0 100 100" style="enable-background:new 0 0 100 100;" xml:space="preserve">
<style type="text/css">
	.st0{fill:#9E267F;}
	.st1{fill:#1EAB4A;}
	.st2{fill:#4B4B4B;}
	.st3{fill:#ED2024;}
	.st4{fill:url(#SVGID_1_);}
	.st5{fill:url(#SVGID_00000030446969233811631400000012228875680148079546_);}
	.st6{fill:url(#SVGID_00000175284093903434201850000008606795333376188549_);}
	.st7{fill:url(#SVGID_00000149352148219267608960000007043060387652741783_);}
	.st8{opacity:0.5;fill:url(#SVGID_00000137107751993618563320000000488273515716619167_);enable-background:new    ;}
	.st9{opacity:0.5;fill:url(#SVGID_00000049936469008714796210000006461604067540867247_);enable-background:new    ;}
	.st10{opacity:0.6;fill:url(#SVGID_00000007390221157242111540000005556927652307414926_);enable-background:new    ;}
	.st11{opacity:0.6;fill:url(#SVGID_00000031208019879862303170000001831857390135744402_);enable-background:new    ;}
	.st12{fill:url(#SVGID_00000161599315340983820400000009798377343559836813_);enable-background:new    ;}
	.st13{opacity:0.6;fill:url(#SVGID_00000066511027599729347790000018444160736132619701_);enable-background:new    ;}
	.st14{fill:url(#SVGID_00000103247826775137947930000006833015541576319896_);enable-background:new    ;}
	.st15{fill:#A3D6DE;}
	.st16{fill:url(#SVGID_00000088097728876667851240000005824964735741808010_);enable-background:new    ;}
	.st17{fill:url(#SVGID_00000106862099562294455120000016410051263149690028_);enable-background:new    ;}
	.st18{fill:url(#SVGID_00000111888982177937571220000015625556537685471678_);enable-background:new    ;}
	.st19{opacity:0.25;fill:#FFFFFF;}
	.st20{fill:url(#SVGID_00000147925097219727134320000003607350110815473320_);enable-background:new    ;}
	.st21{opacity:0.5;fill:url(#SVGID_00000059990140160735489600000000545199390392031923_);enable-background:new    ;}
	.st22{fill:url(#SVGID_00000126307528550354594990000005168128807261529242_);enable-background:new    ;}
	.st23{fill:url(#SVGID_00000093178185538232151510000016912679837526955955_);enable-background:new    ;}
	.st24{fill:url(#SVGID_00000101089201415005224850000002765642897813003401_);enable-background:new    ;}
	.st25{opacity:0.6;fill:url(#SVGID_00000027586912974988961810000015221653594338577308_);enable-background:new    ;}
	.st26{fill:url(#SVGID_00000157291829690493063350000008148509225347751830_);enable-background:new    ;}
	.st27{fill:url(#SVGID_00000085223902013525146710000016624024724632528531_);enable-background:new    ;}
	.st28{fill:url(#SVGID_00000163064889336641818620000004759594240299256736_);enable-background:new    ;}
	.st29{fill:url(#SVGID_00000030458681347657453760000017095852939909724037_);enable-background:new    ;}
	.st30{fill:url(#SVGID_00000124139420642807166540000009300053932432664757_);}
	.st31{fill:url(#SVGID_00000066490571561181260270000000962846221102030247_);}
	.st32{fill:url(#SVGID_00000106125092004009776990000014852686504284186506_);}
	.st33{fill:url(#SVGID_00000178182472270174882330000015716229083011679122_);}
	.st34{fill:url(#SVGID_00000010272097224468182530000013151274674167656108_);}
	.st35{fill:url(#SVGID_00000152969239475040230900000009610587309690456252_);}
	.st36{fill:url(#SVGID_00000139977070469827573370000017776925680468693439_);}
	.st37{fill:url(#SVGID_00000137824692990621403190000011616550161091772576_);}
	.st38{fill:url(#SVGID_00000016075126287828149540000011011607029067529115_);}
	.st39{fill:url(#SVGID_00000078733964436677020830000017529933856174785451_);}
	.st40{fill:url(#SVGID_00000063592522265244330230000002830969356049050815_);}
	.st41{fill:url(#SVGID_00000004521531991909108530000016039899739494074044_);}
	.st42{fill:url(#SVGID_00000066506384924409240240000014555965292132246936_);}
	.st43{fill:url(#SVGID_00000156546020397780274860000002589690706048121761_);}
	.st44{fill:url(#SVGID_00000111913072656033191800000004593418244563386259_);}
	.st45{fill:url(#SVGID_00000021116614342610910430000009066445822779308467_);}
	.st46{fill:url(#SVGID_00000109031650666298327530000011622993324852443266_);}
	.st47{fill:#939598;}
</style>
<g>
	<g>
		<path class="st0" d="M79.8,75.9h5.3c1,0,1.8-0.8,1.8-1.8c0-1-0.8-1.8-1.8-1.8h-32L40.4,37.4c1.2,0.1,2.6,0.5,3.5,0.9
			c0.9,0.4,1.9,0.4,2.8,0.1c0.9-0.3,1.7-1,2.1-1.9c0.6-1.4,2.2-3.6,3.6-4.1c1.4-0.5,4,0.2,5.4,0.8c0.9,0.4,1.9,0.4,2.8,0.1
			c0.5-0.2,0.9-0.4,1.2-0.8c1.1-1,1.5-2.6,1-4c-4-11-17.3-16.4-30.2-12.6L32,14.2c-0.3-1-1.4-1.5-2.4-1.1c-1,0.4-1.5,1.4-1.1,2.4
			l0.7,1.8c-12.3,5.4-19,18-15,29c0.5,1.4,1.8,2.4,3.3,2.4c0.5,0,1-0.1,1.4-0.2c0.9-0.3,1.7-1,2.1-1.9c0.6-1.4,2.2-3.6,3.6-4.1
			c1.4-0.5,4,0.2,5.4,0.8c0.9,0.4,1.9,0.4,2.8,0.1c0.9-0.3,1.7-1,2.1-1.9c0.4-0.8,1.2-2,2.1-2.9l12.2,33.6h-9.7L15.9,55.9
			c-0.8-0.6-2-0.4-2.6,0.5c-0.6,0.8-0.4,2,0.5,2.6L33,72.2h-8.9c-0.5,0-1.1,0.2-1.4,0.7L13.4,84c-0.7,0.8-0.5,2,0.2,2.6
			c0.8,0.6,2,0.6,2.6-0.2L25,75.9h25.6l2.7,7.4h-1.4c-1,0-1.8,0.8-1.8,1.8c0,1,0.8,1.8,1.8,1.8h7.4c1,0,1.8-0.8,1.8-1.8
			s-0.8-1.8-1.8-1.8h-2.1l-2.7-7.4H75l8.7,10.4c0.4,0.4,0.9,0.7,1.4,0.7c0.4,0,0.8-0.1,1.2-0.4c0.8-0.7,0.9-1.8,0.2-2.6L79.8,75.9z
			 M37.2,34c-3.5,1.3-5.7,6-5.7,6s-4.7-2.2-8.2-0.9s-5.7,6-5.7,6c-3.5-9.6,3-20.8,14.5-25c11.5-4.2,23.7,0.2,27.2,9.8
			c0,0-4.7-2.2-8.2-0.9c-3.5,1.3-5.7,6-5.7,6S40.7,32.7,37.2,34z"/>
	</g>
</g>
</svg>
