<svg xmlns="http://www.w3.org/2000/svg" width="14.173" height="14.174" viewBox="0 0 14.173 14.174">
  <g id="Group_72" data-name="Group 72" transform="translate(-43.33 -166.902)">
    <path id="Path_72" data-name="Path 72" d="M56.133,178.949h1.016a.355.355,0,0,0,0-.709H51.013l-2.429-6.673a2.4,2.4,0,0,1,.664.176.714.714,0,0,0,.54.022.706.706,0,0,0,.4-.365,1.757,1.757,0,0,1,.69-.785,1.759,1.759,0,0,1,1.034.159.71.71,0,0,0,.539.021.69.69,0,0,0,.238-.145.706.706,0,0,0,.186-.762c-.766-2.107-3.308-3.137-5.777-2.406l-.126-.347a.354.354,0,1,0-.666.243l.126.347c-2.361,1.026-3.646,3.45-2.879,5.557a.707.707,0,0,0,.635.465.717.717,0,0,0,.273-.042.709.709,0,0,0,.4-.367,1.758,1.758,0,0,1,.689-.784,1.761,1.761,0,0,1,1.035.159.714.714,0,0,0,.54.021.7.7,0,0,0,.4-.365,2.345,2.345,0,0,1,.4-.559l2.34,6.43H48.4l-4.515-3.125a.354.354,0,1,0-.4.582l3.673,2.543h-1.7a.353.353,0,0,0-.272.128l-1.772,2.126a.354.354,0,0,0,.544.454l1.666-2h4.894l.516,1.417h-.261a.355.355,0,1,0,0,.709h1.417a.355.355,0,0,0,0-.709h-.4l-.516-1.417h3.941l1.666,2a.354.354,0,0,0,.544-.454Zm-8.162-8.03a2.474,2.474,0,0,0-1.09,1.15,2.476,2.476,0,0,0-1.574-.181,2.475,2.475,0,0,0-1.089,1.151c-.67-1.839.577-3.981,2.783-4.784s4.538.037,5.208,1.876a2.478,2.478,0,0,0-1.575-.182,2.481,2.481,0,0,0-1.089,1.151A2.469,2.469,0,0,0,47.971,170.919Z" fill="#57ac33"/>
  </g>
</svg>
